<svg viewBox="0 0 512 512" xmlns="http://www.w3.org/2000/svg"><circle cx="256" cy="256" fill="#27273d" r="256"/><path d="m73.49 205.57c0 82.57 124.21 222.24 166.25 267.14a18.79 18.79 0 0 0 27.43 0c42-44.9 166.25-184.57 166.25-267.14a180 180 0 0 0 -359.93 0z" fill="#b0d46c"/><path d="m200.52 333c28.91 43.27 63.78 84.93 89.5 113.85-8.93 10-16.75 18.55-22.85 25.06a18.79 18.79 0 0 1 -27.43 0c-42.03-44.91-166.25-184.56-166.25-267.14a180.16 180.16 0 0 1 216.51-176.25 180.06 180.06 0 0 0 -143.4 176.25c.02 36.07 23.72 83.03 53.92 128.23z" fill="#9ebc5c"/><circle cx="253.45" cy="205.57" fill="#fff" r="138.7"/><path d="m200.52 333a138.74 138.74 0 0 1 -.36-256.31 179.39 179.39 0 0 0 -53.54 128.08c0 36.07 23.7 83.03 53.9 128.23z" fill="#d8d8d8"/><path d="m367.06 166.43h-1.35v-15.82a3 3 0 0 0 -2.95-3h-17.17v-27.44a13 13 0 0 0 -9.41-12.48q-82.6-23.58-165.2 0a13 13 0 0 0 -9.42 12.48v27.49h-17.41a3 3 0 0 0 -3 3v15.82h-1.35a6.15 6.15 0 0 0 -6.15 6.15v19.67a6.15 6.15 0 0 0 6.15 6.15h8.61a6.15 6.15 0 0 0 6.15-6.15v-19.72a6.15 6.15 0 0 0 -6.15-6.15h-1.31v-12.87h14.46v127.84a13 13 0 0 0 13 13h3.23v15a5.91 5.91 0 0 0 5.91 5.9h15.39a5.9 5.9 0 0 0 5.91-5.9v-15h98.32v15a5.9 5.9 0 0 0 5.9 5.9h15.4a5.9 5.9 0 0 0 5.9-5.9v-15h2.13a13 13 0 0 0 13-13v-127.84h14.22v12.87h-1.36a6.15 6.15 0 0 0 -6.15 6.15v19.67a6.15 6.15 0 0 0 6.15 6.15h8.61a6.15 6.15 0 0 0 6.15-6.15v-19.67a6.15 6.15 0 0 0 -6.21-6.15z" fill="#3e436d"/><g fill="#fff"><rect height="26.72" rx="7.37" width="113.98" x="196.58" y="112.44"/><path d="m323.72 226.41a305.3 305.3 0 0 1 -140.29 0 7.33 7.33 0 0 1 -5.67-7.13v-61.36a7.31 7.31 0 0 1 7.31-7.31h137a7.31 7.31 0 0 1 7.31 7.31v61.36a7.33 7.33 0 0 1 -5.66 7.13z"/><rect height="9.54" rx="4.77" width="46.24" x="230.45" y="254.35"/><rect height="9.54" rx="4.77" width="46.24" x="230.45" y="273.44"/><circle cx="187.38" cy="269.35" r="8.85"/><circle cx="209.52" cy="269.35" r="8.85"/><circle cx="299.5" cy="269.35" r="8.85"/><circle cx="321.64" cy="269.35" r="8.85"/></g></svg>